<?xml version="1.0" standalone="no"?>
<!DOCTYPE svg PUBLIC "-//W3C//DTD SVG 20010904//EN"
 "http://www.w3.org/TR/2001/REC-SVG-20010904/DTD/svg10.dtd">
<svg version="1.0" xmlns="http://www.w3.org/2000/svg"
 width="500.000000pt" height="500.000000pt" viewBox="0 0 500.000000 500.000000"
 preserveAspectRatio="xMidYMid meet">
<metadata>
Created by potrace 1.14, written by Peter Selinger 2001-2017
</metadata>
<g transform="translate(0.000000,500.000000) scale(0.100000,-0.100000)"
fill="#000000" stroke="none">
<path d="M3635 4625 c-17 -18 -20 -34 -20 -115 0 -52 -2 -99 -4 -105 -9 -18
-1 -140 9 -143 6 -2 10 -20 10 -41 0 -24 7 -45 20 -59 46 -49 52 -126 13 -173
-6 -8 -14 -26 -18 -42 -4 -15 -11 -27 -17 -27 -5 0 -7 -4 -4 -9 3 -5 -1 -14
-9 -21 -8 -7 -15 -19 -15 -26 0 -8 -4 -14 -8 -14 -5 0 -17 -16 -28 -35 -10
-19 -22 -35 -26 -35 -5 0 -8 -5 -8 -10 0 -6 -20 -43 -44 -83 -24 -39 -51 -88
-61 -107 -10 -19 -21 -37 -24 -40 -12 -9 -71 -88 -71 -94 0 -7 -19 -30 -72
-86 -45 -49 -150 -188 -152 -204 -1 -11 -9 -16 -26 -16 -10 0 -9 21 3 50 3 8
8 31 11 50 4 33 8 48 22 103 3 12 8 33 11 47 2 14 7 32 9 40 3 8 5 16 4 18 0
1 7 16 15 32 15 29 33 38 89 44 31 3 69 41 88 86 13 31 13 126 1 143 -5 6 -8
22 -7 35 0 12 -2 22 -6 22 -4 0 -6 12 -5 28 1 15 -1 32 -5 37 -3 6 -7 21 -8
34 0 13 -8 31 -16 40 -15 16 -25 109 -13 127 3 6 0 22 -8 37 -9 19 -10 27 -2
27 6 0 2 6 -9 14 -10 8 -21 11 -24 7 -13 -19 -41 -17 -74 5 -20 14 -36 28 -36
33 0 4 -9 18 -20 31 -11 12 -17 27 -13 33 3 6 1 7 -6 3 -6 -4 -14 0 -17 8 -3
9 -10 14 -14 11 -5 -3 -14 3 -19 12 -11 17 -11 17 -22 0 -5 -9 -15 -14 -22
-10 -6 4 -27 6 -47 5 -29 -2 -39 2 -48 20 -6 13 -11 18 -11 11 -1 -7 -8 -10
-18 -6 -11 4 -14 3 -9 -6 5 -8 1 -14 -12 -18 -12 -3 -26 -17 -32 -32 -18 -41
-34 -71 -40 -71 -3 0 -4 -21 -2 -47 3 -64 4 -73 11 -73 3 0 6 -15 6 -33 0 -21
-4 -34 -12 -34 -9 0 -10 4 -2 13 7 8 6 14 -2 20 -7 4 -9 3 -5 -4 3 -6 1 -14
-5 -17 -5 -4 -8 -13 -5 -21 3 -8 0 -17 -7 -20 -17 -6 -15 -90 3 -107 10 -9 11
-9 6 0 -5 8 -2 11 7 8 9 -4 13 -22 12 -55 -1 -38 2 -47 11 -39 8 7 15 6 20 -2
4 -8 3 -9 -4 -5 -7 4 -12 1 -12 -8 0 -9 5 -16 10 -16 6 0 10 -5 10 -11 0 -5
-5 -7 -12 -3 -6 4 -8 3 -5 -4 4 -5 17 -8 30 -5 18 4 19 3 7 -6 -13 -9 -13 -11
3 -11 9 0 17 -5 17 -11 0 -5 -4 -7 -10 -4 -6 3 -7 -1 -4 -9 3 -9 9 -14 13 -12
3 2 4 -16 2 -40 -2 -29 1 -44 9 -44 6 0 8 -4 5 -10 -4 -6 8 -10 30 -10 20 0
47 -7 61 -16 13 -9 27 -14 31 -11 3 4 18 0 33 -8 15 -8 30 -12 33 -9 10 10 26
-33 22 -57 -15 -73 -18 -96 -21 -119 -1 -14 -3 -25 -4 -25 -1 0 -3 -7 -5 -15
-2 -8 -6 -25 -9 -37 -3 -13 -8 -31 -10 -40 -2 -10 -9 -31 -16 -48 -6 -16 -13
-50 -16 -74 -2 -24 -7 -48 -11 -54 -4 -6 -8 -27 -10 -47 -4 -56 -9 -83 -23
-115 -7 -16 -12 -36 -11 -44 1 -7 -2 -10 -8 -6 -6 3 -11 1 -11 -4 0 -6 6 -11
13 -11 8 0 7 -4 -3 -10 -9 -6 -10 -10 -3 -10 6 0 10 -8 8 -17 -10 -53 -30
-121 -42 -143 -7 -14 -13 -32 -13 -41 0 -9 -7 -22 -15 -29 -8 -7 -15 -19 -15
-27 0 -7 -14 -40 -30 -73 -17 -33 -27 -60 -23 -60 5 0 3 -4 -4 -8 -9 -6 -52
-88 -58 -112 0 -3 -15 -33 -33 -68 -17 -34 -31 -65 -31 -67 -1 -13 -33 -81
-45 -95 -8 -8 -26 -40 -42 -70 -15 -30 -31 -57 -34 -60 -6 -5 -19 -34 -20 -48
-1 -4 -9 -15 -17 -24 -9 -10 -13 -18 -8 -18 4 0 2 -6 -4 -13 -6 -8 -9 -16 -6
-19 3 -3 -1 -11 -10 -18 -8 -7 -15 -19 -15 -26 0 -8 -5 -14 -12 -14 -6 0 -8
-3 -5 -6 7 -7 -33 -87 -46 -92 -4 -2 -4 -9 -1 -14 4 -7 2 -8 -4 -4 -7 4 -12
14 -12 22 0 26 -38 57 -75 61 -41 4 -79 38 -94 86 -12 34 -9 136 3 156 4 6 2
11 -3 11 -6 0 -10 17 -10 38 1 40 -9 121 -18 135 -4 7 -17 171 -14 192 1 6 3
39 4 75 2 36 9 82 16 102 7 20 13 47 15 60 3 23 10 46 27 83 5 11 11 49 13 85
3 36 8 75 11 88 9 28 -10 52 -41 52 -33 0 -55 -26 -45 -53 9 -24 7 -123 -4
-156 -3 -11 -12 -18 -19 -15 -9 3 -12 40 -12 138 0 149 -12 186 -59 186 -18 0
-23 4 -19 15 4 8 13 15 21 15 8 0 11 5 8 10 -3 6 0 10 7 10 19 0 44 31 52 64
5 22 11 27 26 23 14 -3 20 0 20 11 0 8 3 12 6 9 10 -9 46 12 68 40 10 13 25
22 32 19 8 -3 14 -2 14 2 0 5 9 18 21 30 11 12 17 27 13 34 -4 7 -3 8 4 4 11
-6 17 13 13 37 -1 5 3 6 9 2 5 -3 25 10 45 30 19 20 39 34 44 31 8 -5 20 11
18 24 -2 11 37 49 45 44 4 -3 8 3 8 13 0 10 6 28 14 39 13 17 13 36 4 102 -1
6 -7 12 -15 12 -7 0 -13 6 -13 14 0 13 -39 17 -50 5 -9 -9 -134 -38 -157 -35
-26 3 -74 37 -67 47 2 4 0 10 -6 14 -6 4 -8 10 -6 14 3 4 -8 15 -25 25 -16 9
-27 22 -24 27 4 5 0 9 -8 9 -10 0 -13 7 -10 18 2 11 -1 19 -9 20 -7 0 -34 4
-59 7 -37 5 -47 4 -52 -9 -4 -9 -13 -16 -22 -16 -8 0 -15 -5 -15 -11 0 -5 -4
-8 -9 -5 -21 13 -42 -33 -42 -90 0 -34 -5 -62 -12 -66 -9 -6 -9 -8 0 -8 7 0
10 -7 7 -15 -4 -8 -11 -12 -16 -9 -6 4 -29 8 -52 9 -22 2 -42 4 -43 5 -2 1 -7
3 -13 4 -5 0 -10 4 -10 9 0 4 0 10 0 14 0 3 10 -2 21 -13 22 -19 22 -19 8 4
-13 20 -18 23 -36 21 -3 0 -10 6 -15 15 -5 8 -15 13 -24 9 -8 -3 -14 -2 -13 3
1 5 1 17 0 27 -1 15 -5 16 -21 7 -16 -9 -20 -8 -20 6 0 10 -3 14 -7 11 -3 -4
-12 -2 -20 4 -7 6 -13 8 -13 4 0 -4 -8 -1 -17 6 -9 8 -14 9 -10 2 8 -13 -18
-12 -30 2 -4 4 -2 5 5 1 6 -4 12 -4 12 -1 0 13 -29 35 -45 35 -9 0 -13 5 -10
10 3 6 -3 10 -14 10 -31 0 -53 -42 -55 -107 0 -37 -5 -57 -12 -56 -19 4 -46
-34 -49 -67 -1 -16 1 -30 4 -30 7 0 34 -57 46 -97 3 -13 10 -23 15 -23 5 0 12
-10 16 -22 4 -13 18 -33 31 -45 13 -13 21 -23 17 -23 -4 0 3 -11 15 -24 14
-15 20 -30 15 -37 -5 -9 -2 -10 10 -6 10 4 15 3 11 -3 -3 -6 1 -13 9 -16 11
-4 13 -11 6 -30 -5 -13 -6 -24 -1 -24 4 0 8 -7 8 -15 0 -8 -3 -15 -7 -15 -3 0
-6 -9 -7 -20 -1 -11 2 -20 8 -20 5 0 9 -7 9 -16 0 -8 4 -13 9 -9 5 3 12 1 16
-5 4 -6 10 -8 15 -5 5 3 17 -6 28 -20 11 -14 25 -25 32 -25 6 0 9 -4 6 -8 -3
-5 23 -9 57 -10 34 0 80 -7 102 -15 30 -12 45 -12 60 -4 22 12 50 19 41 10 -3
-4 -1 -12 5 -20 6 -7 9 -22 6 -33 -3 -11 -1 -20 3 -20 5 0 8 -15 8 -32 0 -18
3 -49 7 -68 3 -19 7 -51 9 -70 1 -20 6 -42 11 -49 6 -10 4 -12 -4 -6 -10 6
-11 3 -3 -11 10 -20 9 -80 -2 -91 -3 -3 -1 -12 5 -19 6 -7 12 -49 13 -92 2
-44 7 -85 11 -92 4 -7 9 -49 11 -94 6 -110 11 -175 19 -211 9 -48 13 -195 6
-224 -4 -14 -4 -41 0 -58 7 -34 6 -35 -39 -37 -26 -1 -42 -21 -42 -53 0 -13
-5 -23 -11 -23 -5 0 -8 -3 -6 -8 3 -4 -4 -25 -15 -47 -11 -22 -22 -65 -24 -95
-1 -30 -4 -64 -7 -75 -4 -22 10 -97 21 -105 11 -8 32 -53 35 -77 4 -32 13 -38
58 -39 22 -1 38 1 35 4 -3 3 2 11 12 19 11 10 12 12 2 8 -8 -4 -6 1 4 9 19 16
19 16 1 16 -14 0 -16 3 -7 12 8 8 15 8 28 -3 10 -8 15 -9 11 -3 -6 10 12 24
28 24 20 0 -30 -106 -75 -157 -6 -7 -10 -15 -10 -18 1 -11 -50 -104 -60 -110
-6 -4 -8 -11 -5 -16 4 -5 1 -9 -4 -9 -6 0 -11 -7 -11 -15 0 -8 -4 -15 -8 -15
-5 0 -9 -6 -9 -13 0 -7 -17 -49 -39 -92 -21 -44 -40 -89 -41 -100 -2 -10 -8
-22 -13 -25 -5 -3 -23 -36 -39 -74 -17 -37 -40 -81 -52 -97 -11 -16 -17 -29
-13 -29 4 0 -1 -9 -12 -21 -10 -12 -18 -24 -18 -28 2 -10 -6 -34 -22 -63 -8
-16 -13 -28 -9 -28 3 0 -2 -11 -11 -25 -9 -14 -14 -31 -11 -38 3 -7 -1 -21 -9
-31 -7 -11 -11 -23 -8 -27 3 -5 1 -9 -5 -9 -6 0 -13 -17 -17 -37 -4 -21 -28
-80 -54 -130 l-46 -93 37 0 c21 0 41 5 45 12 5 7 2 9 -7 4 -8 -4 -6 -1 3 7 10
8 18 21 18 29 0 8 5 19 12 26 7 7 9 12 5 12 -6 0 23 59 48 100 5 8 11 24 13
35 7 41 17 67 43 116 10 20 20 45 22 55 2 10 8 29 15 41 7 12 12 27 12 33 0 6
11 28 25 50 14 22 25 46 25 53 0 8 11 26 25 41 13 14 25 30 26 34 2 7 11 32
24 62 6 14 20 39 40 70 9 15 14 30 17 63 1 9 6 17 10 17 4 0 5 6 2 13 -3 8 2
20 11 27 8 7 15 17 15 22 0 6 9 22 19 36 10 15 19 32 19 37 0 6 8 21 17 35 9
14 42 68 74 120 32 52 63 94 69 93 6 -2 9 4 6 12 -4 8 1 17 10 21 9 3 13 10
11 15 -3 4 6 31 20 58 14 28 26 58 28 68 1 10 6 24 10 31 5 6 5 12 2 12 -4 0
18 46 48 103 54 100 112 228 119 257 2 8 5 17 8 20 12 12 30 51 30 65 0 8 5
15 10 15 6 0 10 5 10 11 0 6 14 31 32 57 18 26 32 47 30 47 -1 0 1 10 4 23 4
12 11 22 17 22 6 0 7 3 4 6 -4 4 2 19 13 33 10 15 26 46 35 69 10 23 21 42 27
42 5 0 7 4 4 9 -3 4 16 50 42 102 37 73 52 94 68 94 19 0 67 30 100 63 7 6 16
12 20 12 3 0 15 10 26 22 17 20 54 36 44 19 -3 -4 1 -20 9 -35 8 -14 10 -24 4
-20 -6 3 -5 -4 2 -17 7 -13 15 -31 20 -39 4 -8 12 -14 18 -12 6 1 11 -5 11
-13 0 -8 5 -15 10 -15 6 0 10 -6 10 -14 0 -20 32 -45 37 -29 3 7 3 14 2 15 -2
2 6 13 16 26 11 12 20 28 20 35 1 7 6 11 13 9 7 -1 12 2 12 6 0 5 6 9 13 10 6
0 23 4 36 8 19 5 22 4 16 -6 -6 -10 -3 -12 13 -8 13 4 22 1 22 -5 0 -7 4 -6 9
2 5 8 7 23 5 34 -2 11 5 28 16 37 23 20 15 36 -8 17 -10 -8 -13 -8 -9 -1 4 7
0 15 -9 18 -15 6 -15 8 1 26 13 14 22 17 30 10 6 -5 15 -7 18 -3 4 3 7 1 7 -7
0 -9 3 -10 13 -1 8 6 17 8 20 5 4 -4 5 3 2 14 -2 12 3 23 11 26 9 3 12 10 9
16 -3 5 -1 10 4 10 6 0 11 5 11 10 0 6 17 33 37 60 21 28 38 60 38 73 1 13 5
29 9 35 3 6 2 13 -4 17 -5 3 -10 14 -10 24 0 9 -15 31 -32 47 -32 29 -51 54
-65 84 -4 8 -12 20 -17 26 -6 6 -27 32 -46 58 -83 111 -116 151 -128 153 -6 2
-12 -2 -12 -7 0 -6 -9 -10 -20 -10 -18 0 -17 4 12 49 18 28 38 50 45 50 6 1
15 10 18 21 3 11 11 20 16 20 6 0 7 5 4 10 -3 6 -2 10 3 10 5 0 22 19 38 43
16 23 31 44 34 47 11 10 85 135 114 192 16 32 32 55 36 53 6 -4 41 58 39 71
-1 3 11 19 26 34 15 15 27 32 27 37 0 7 32 67 65 121 12 19 16 21 28 9 7 -8
42 -20 77 -26 35 -7 68 -16 73 -21 9 -7 91 -21 120 -21 26 0 90 31 93 45 2 9
9 16 17 16 16 0 22 24 20 75 -1 22 -3 53 -4 68 0 16 -5 25 -11 22 -5 -3 -7 0
-4 8 3 8 -1 21 -9 29 -9 8 -12 20 -7 29 9 18 -7 79 -21 79 -6 0 -8 4 -4 9 3 5
1 12 -5 16 -6 4 -7 11 -4 17 4 6 2 8 -4 4 -6 -3 -14 4 -18 16 -4 13 -5 23 -3
23 2 0 -23 26 -55 58 -32 31 -62 57 -67 57 -6 0 -8 4 -4 9 7 12 -29 33 -39 24
-3 -3 -6 -1 -6 6 0 7 -6 11 -12 8 -14 -4 -44 26 -53 52 -5 17 -55 25 -55 9 0
-5 -6 -3 -14 4 -8 7 -12 16 -9 21 4 7 -26 11 -61 7 -10 -1 -22 2 -25 7 -3 4
-15 -1 -26 -12z m-525 -1618 c-4 -12 -15 -39 -24 -59 -9 -21 -13 -38 -10 -38
4 0 0 -8 -7 -17 -10 -11 -10 -14 -1 -9 15 9 10 -36 -12 -106 -8 -25 -12 -48
-10 -51 9 -8 -87 -185 -103 -191 -23 -9 -27 0 -13 33 6 17 12 34 12 38 0 4 5
15 12 23 16 19 30 52 27 67 -1 6 3 14 8 17 5 3 7 15 4 25 -3 10 1 30 8 42 7
13 14 26 14 29 13 54 18 88 17 103 0 9 3 17 9 17 5 0 9 7 9 15 0 8 7 23 15 32
8 10 15 21 15 26 -1 12 24 35 32 31 4 -3 3 -15 -2 -27z"/>
<path d="M3390 2562 c0 -4 10 -9 22 -9 18 -2 20 0 8 7 -18 12 -30 13 -30 2z"/>
<path d="M777 1970 c-14 -11 -29 -30 -33 -43 -4 -12 -15 -33 -26 -47 -10 -14
-20 -45 -23 -69 -2 -24 -8 -47 -13 -50 -4 -3 -8 -15 -8 -26 0 -30 -14 -66 -24
-60 -4 3 -7 -6 -6 -20 2 -14 -1 -22 -7 -18 -6 3 -8 -6 -5 -26 3 -18 2 -34 -2
-36 -4 -3 -6 -22 -4 -44 2 -23 -1 -43 -7 -46 -5 -4 -9 -17 -9 -31 0 -14 4 -22
10 -19 6 3 10 -1 10 -9 0 -18 34 -56 50 -56 6 0 10 -5 10 -11 0 -6 7 -9 15 -5
8 3 15 1 15 -4 0 -5 16 -17 35 -26 19 -9 35 -20 35 -24 0 -9 31 -19 87 -26 48
-7 107 17 125 49 6 12 12 45 14 75 3 41 8 58 24 69 11 8 18 18 15 23 -8 12 38
41 67 42 12 1 29 6 36 11 6 5 12 7 12 4 0 -2 18 13 40 35 22 22 40 44 40 50 0
5 16 18 35 29 19 11 37 29 40 40 4 10 10 19 14 19 4 0 7 19 6 43 -1 40 -2 42
-30 41 -41 -1 -117 -14 -130 -22 -16 -10 -115 -8 -115 2 0 5 -3 7 -6 3 -3 -3
-35 5 -71 18 -64 23 -122 71 -124 104 -1 9 -2 21 -4 26 -1 6 -3 15 -3 21 -2 9
-43 34 -56 34 -2 0 -15 -9 -29 -20z"/>
<path d="M3015 1540 c-4 -6 -12 -9 -18 -8 -21 4 -67 -12 -67 -23 0 -6 -5 -7
-10 -4 -6 3 -13 0 -16 -9 -3 -8 -12 -12 -20 -9 -8 3 -14 1 -14 -5 0 -5 -16
-17 -35 -26 -19 -9 -35 -20 -36 -24 -5 -42 -5 -52 1 -52 9 0 12 -148 3 -162
-11 -19 -10 -31 4 -46 7 -8 11 -17 8 -22 -3 -5 1 -11 7 -13 13 -5 -18 -11 -37
-7 -5 1 -17 3 -26 5 -10 2 -24 -11 -38 -36 -12 -21 -19 -39 -14 -39 4 0 -1 -7
-11 -15 -11 -8 -16 -15 -12 -15 5 0 -26 -36 -68 -81 -42 -44 -76 -89 -76 -100
0 -10 -4 -19 -9 -19 -10 0 -64 -79 -68 -100 -1 -8 -7 -16 -12 -18 -6 -2 -11
-12 -11 -23 0 -10 -4 -19 -10 -19 -5 0 -9 -3 -8 -7 1 -5 -6 -23 -15 -40 -10
-18 -15 -33 -12 -33 20 0 -114 -128 -155 -148 -66 -32 -112 -66 -163 -121 -61
-64 -74 -76 -107 -101 -19 -14 -49 -40 -68 -57 -18 -18 -38 -33 -43 -33 -5 0
-14 -9 -21 -20 -7 -11 -16 -20 -20 -20 -4 0 -21 -12 -37 -28 -16 -15 -38 -34
-48 -42 -16 -14 -14 -15 24 -18 38 -3 47 1 80 35 21 21 52 47 69 58 31 20 99
73 135 107 11 10 21 18 23 18 2 0 19 15 39 34 20 19 50 40 67 47 16 8 30 17
30 21 0 4 12 14 28 22 15 8 50 35 77 61 28 26 69 60 91 75 36 25 71 76 81 118
2 6 4 18 6 25 6 24 39 87 47 87 7 0 72 115 70 125 -1 4 11 15 25 27 14 11 53
47 86 80 62 62 83 68 85 27 1 -13 7 -37 14 -54 7 -16 13 -33 12 -37 -1 -5 5
-8 13 -8 8 0 14 -3 14 -7 -4 -24 4 -30 36 -28 20 1 39 5 42 9 3 3 12 1 19 -4
12 -11 33 -17 87 -27 15 -3 27 -9 27 -14 0 -5 11 -15 25 -21 14 -6 25 -17 25
-25 0 -7 5 -13 10 -13 6 0 10 -5 10 -11 0 -12 32 -46 37 -40 2 2 14 0 26 -4
34 -12 57 -13 57 -4 0 5 7 6 15 2 10 -3 15 0 13 8 -2 8 4 13 15 13 9 -1 17 5
17 13 0 9 5 11 13 7 7 -5 6 0 -3 11 -14 17 -13 18 3 12 15 -6 16 -4 6 15 -9
17 -9 20 4 15 23 -9 38 12 26 36 -8 14 -8 18 0 13 10 -7 16 7 12 28 -1 5 6 3
15 -5 13 -10 16 -10 10 -1 -4 7 -3 19 3 26 8 9 7 13 -4 13 -8 0 -12 -4 -9 -9
3 -4 0 -8 -6 -8 -7 0 -9 7 -6 16 3 9 6 18 6 20 0 3 4 2 10 -1 6 -4 7 1 3 11
-6 16 -7 16 -19 0 -8 -11 -14 -13 -19 -7 -3 6 -2 11 3 11 6 0 13 7 16 16 6 15
4 15 -11 3 -10 -7 -15 -9 -11 -5 4 5 4 14 -2 21 -6 7 -4 21 5 38 8 15 10 25 5
22 -12 -8 -19 17 -9 37 6 10 5 19 -1 23 -18 11 38 97 60 91 13 -3 71 48 66 59
-2 7 4 26 14 43 10 16 17 32 15 34 -4 4 -11 35 -14 59 -1 3 -12 11 -26 17 -15
7 -25 20 -25 32 0 26 -26 26 -33 0 -3 -13 -10 -18 -21 -14 -9 3 -22 1 -30 -5
-13 -11 -64 -9 -85 3 -6 4 -11 2 -11 -4 0 -7 -5 -8 -12 -3 -7 4 -24 9 -38 9
-14 1 -26 3 -27 4 -2 1 -8 3 -13 4 -19 2 -80 57 -80 71 0 8 -5 15 -11 15 -6 0
-9 6 -6 14 3 7 -3 20 -14 30 -22 18 -35 20 -44 6z m339 -751 c-3 -5 -10 -7
-15 -3 -5 3 -7 10 -3 15 3 5 10 7 15 3 5 -3 7 -10 3 -15z"/>
<path d="M417 1467 c-13 -12 -28 -33 -32 -47 -4 -14 -18 -39 -30 -56 -59 -78
-70 -123 -50 -209 3 -16 8 -43 10 -60 6 -59 27 -120 50 -141 41 -38 65 -153
41 -192 -3 -5 -10 -39 -16 -76 -6 -37 -15 -75 -20 -84 -5 -9 -11 -28 -14 -42
-3 -14 -14 -35 -26 -47 -11 -12 -20 -27 -20 -33 0 -5 -9 -29 -19 -53 -11 -23
-25 -60 -32 -82 -7 -22 -16 -44 -20 -48 -11 -14 -32 63 -30 113 1 25 2 56 2
70 2 44 -7 165 -12 175 -5 10 -10 47 -13 93 0 12 -4 22 -7 22 -3 0 -6 12 -6
28 -1 15 -3 36 -6 47 -16 65 -21 81 -33 103 -6 13 -11 36 -9 50 2 17 -6 39
-20 57 -18 25 -31 31 -64 33 l-41 3 0 -351 0 -350 33 -1 c88 -3 88 -3 102 -36
8 -18 11 -33 8 -33 -3 0 1 -8 10 -17 23 -26 50 -111 52 -163 1 -25 5 -54 9
-65 5 -11 12 -32 18 -47 9 -23 17 -28 43 -28 21 0 32 4 30 13 -14 65 -19 77
-26 77 -10 0 -6 23 16 80 9 25 18 65 19 90 2 25 10 63 20 85 24 55 56 125 72
157 8 14 14 33 14 42 0 9 4 16 9 16 5 0 12 10 16 23 7 23 8 25 19 90 3 21 12
53 20 72 15 35 30 38 63 13 7 -5 30 -8 52 -7 22 2 43 0 47 -3 3 -4 8 -26 9
-50 2 -24 4 -45 5 -48 1 -3 2 -8 1 -12 0 -5 4 -8 10 -8 6 0 8 -13 5 -30 -2
-16 0 -30 5 -30 5 0 13 -8 16 -17 4 -9 14 -24 22 -33 61 -63 67 -87 42 -152
-5 -13 -10 -27 -11 -33 -2 -5 -14 -27 -26 -47 -13 -21 -24 -41 -24 -46 0 -4
-9 -18 -21 -31 -11 -12 -18 -29 -15 -37 3 -7 1 -14 -4 -14 -6 0 -10 -5 -10
-10 0 -6 -16 -26 -36 -45 -20 -19 -32 -35 -28 -35 4 0 -7 -13 -24 -28 -18 -16
-32 -32 -32 -35 0 -4 15 -7 33 -7 27 0 44 10 81 47 53 52 94 103 96 118 3 31
22 85 30 85 6 0 10 9 10 20 0 11 5 20 10 20 6 0 10 6 10 13 0 6 13 27 29 45
24 27 34 32 55 26 15 -3 28 -10 31 -14 8 -13 54 -1 100 25 35 21 43 23 56 11
7 -8 35 -18 61 -24 50 -10 61 -6 118 45 14 12 35 30 46 40 18 15 22 29 22 78
0 33 -4 65 -7 70 -4 6 -7 17 -6 25 1 8 -2 22 -6 31 -16 33 -29 109 -33 196 -3
60 -2 64 30 91 18 16 36 42 39 58 11 54 13 84 3 84 -5 0 -5 7 0 17 17 29 -12
46 -63 38 -25 -3 -45 -10 -45 -14 0 -5 -12 -11 -27 -14 -54 -10 -87 -18 -95
-23 -5 -3 -24 -8 -41 -11 -18 -3 -38 -8 -45 -12 -22 -12 -64 0 -69 20 -3 10
-15 22 -27 26 -28 10 -66 11 -66 2 0 -4 -10 -11 -22 -15 -12 -3 -28 -13 -36
-20 -7 -8 -23 -14 -35 -13 -24 1 -80 61 -82 88 0 9 -4 22 -8 28 -4 7 -8 28 -9
48 -1 19 -6 35 -11 35 -6 0 -7 3 -4 7 4 3 -3 17 -15 31 -24 25 -74 105 -84
135 -4 9 -18 20 -33 23 -14 4 -30 9 -36 13 -23 13 -46 9 -68 -12z"/>
<path d="M134 1185 c-10 -24 8 -36 29 -20 18 13 18 14 -2 25 -17 9 -22 8 -27
-5z"/>
</g>
</svg>
