<svg width="414" height="656" viewBox="0 0 414 656" fill="none" xmlns="http://www.w3.org/2000/svg">
<path d="M194.171 508.989C193.582 512.228 184.501 515.408 182.348 517.741C180.689 519.538 180.526 522.075 178.523 523.677C175.343 526.222 173.295 529.006 169.277 529.899C166.714 530.469 163.4 531.109 161.057 532.411C159.19 533.448 156.21 531.987 154.607 533.153C152.57 534.635 149.194 534.599 146.73 536.007C145.109 536.933 144.02 537.952 142.05 538.061C140.534 538.146 133.689 542.079 132.29 543.198C129.039 545.799 125.096 545.64 122.529 548.849C121.044 550.706 115.336 553.702 113.282 554.728C111.036 555.852 107.891 562.52 106.889 564.774C105.195 568.586 101.981 571.184 101.981 575.562C101.981 581.026 97.5302 585.515 94.7316 589.946C92.1825 593.982 86.5303 596.919 84.2862 600.734C82.9267 603.045 81.0847 604.776 80.3477 607.355C80.0367 608.444 78.6244 607.546 78.4071 609.067C78.1156 611.107 78.1359 613.243 77.0943 615.118C76.1061 616.897 74.3799 617.742 74.2403 620.255C74.0509 623.664 72.4615 623.886 71.1581 626.819C69.1468 631.344 65.6773 634.069 62.4821 637.264C57.722 642.024 54.9618 652.226 46.5 647.995" stroke="#00C555" stroke-width="6" stroke-linecap="round"/>
<path d="M45.1952 650.75C45.1952 645.923 46.4729 642.529 47.3642 637.85C48.2832 633.025 52.4644 629.197 53.4716 624.665C54.2007 621.384 57.447 618.207 59.3507 615.589C61.5263 612.598 63.3712 605.46 66.771 603.26C69.2184 601.677 71.5587 591.95 71.9651 589.105C72.2803 586.899 73.1847 583.987 74.9903 582.712C76.4669 581.67 76.479 577.445 77.5018 575.691C79.6534 572.003 81.7492 566.865 83.2097 562.849C85.448 556.693 90.8911 551.13 92.4565 544.869C92.9383 542.942 94.7847 540.34 96.0524 538.818C98.0356 536.439 98.631 533.157 100.676 530.999C103.934 527.559 106.348 522.581 108.895 518.441C111.684 513.909 114.98 509.924 116.886 504.628C119.204 498.19 123.932 491.418 125.106 484.765C126.266 478.186 128.932 471.897 131.555 466.214C133.153 462.753 134.137 459.511 135.836 456.111C136.738 454.308 137.227 452.186 138.234 450.46C139.116 448.948 140.934 448.501 141.715 446.807C145.059 439.562 151.115 433.483 155.129 426.316C157.067 422.856 159.131 416.279 162.321 414.215C163.346 413.552 166.161 409.905 166.374 408.736C167.22 404.078 171.429 398.351 174.422 394.694C174.963 394.033 174.596 392.621 174.707 391.84C174.963 390.047 176.447 390.073 177.161 388.644C178.419 386.129 178.894 383.75 180.358 381.338C185.89 372.226 186.48 360.136 190.061 350.287C191.334 346.786 192.773 341.09 193.144 337.387C193.377 335.049 194.59 333.532 195.769 331.679C198.712 327.055 198.446 322.664 199.765 317.638C201.518 310.954 204.445 303.183 204.445 296.29C204.445 292.354 206.224 289.838 206.5 286.244C206.933 280.612 207.956 274.808 208.498 269.121C209.052 263.3 210.118 256.324 211.637 250.627C215.034 237.889 221.335 226.281 223.966 213.126C224.949 208.213 227.819 202.532 228.076 197.658C228.376 191.948 232.029 187.297 232.185 181.676C232.32 176.849 234.122 173.266 236.067 168.89C237.286 166.148 240.405 161.604 240.405 158.616" stroke="#009742" stroke-width="6" stroke-linecap="round"/>
<path d="M186.979 356.908C187.292 354.088 190.41 351.768 191.602 349.145C192.673 346.79 194.912 341.312 197.482 340.241C199.371 339.454 202.32 334.742 203.418 332.821C204.159 331.524 208.318 328.592 210.096 328.197C214.414 327.238 222.508 318.997 225.051 315.183C226.51 312.994 227.531 309.256 229.103 307.592C231.1 305.478 233.213 302.384 233.213 299.373" stroke="#00AA4A" stroke-width="7" stroke-linecap="round"/>
<path d="M202.39 315.811C202.39 310.554 204.866 303.181 206.957 298.402C208.649 294.535 211.407 287.083 211.637 282.934C211.86 278.92 214.81 277.222 215.69 274.144C216.797 270.268 218.374 266.037 221.455 262.956C223.602 260.809 226.76 258.846 228.304 256.221C229.431 254.305 231.795 252.804 233.27 251.084C234.778 249.324 236.287 246.239 237.893 244.862C246.052 237.869 254.643 227.958 260.497 219.006C267.189 208.77 273.068 197.373 281.273 188.183C284.766 184.271 287.154 178.82 290.235 174.027C294.331 167.655 297.548 161.178 301.422 154.621C302.44 152.897 302.595 148.581 304.105 147.543C305.507 146.579 306.16 146.017 306.16 144.232C306.16 140.578 308.548 136.822 309.299 133.444C309.936 130.579 309.34 125.718 310.498 123.113C311.644 120.534 313.352 117.314 313.352 114.437" stroke="#00A849" stroke-width="7" stroke-linecap="round"/>
<path d="M113.005 514V437.846C113.005 437.846 114.71 427.964 115.06 422.891C115.647 414.375 117.172 397.034 117.172 397.034C117.172 397.034 118.142 368.479 118.142 354.168C118.142 343.554 117.914 319.921 117.914 319.921C117.914 319.921 117.24 311.542 117.115 307.135C116.975 302.265 114.089 292.694 114.089 292.694C114.089 292.694 114.079 277.755 111.178 271.632C108.547 266.076 108.895 255.194 108.895 255.194" stroke="#009340" stroke-width="6" stroke-linecap="round"/>
<path d="M197.976 510.552C197.387 513.791 188.306 516.971 186.152 519.304C184.494 521.101 184.331 523.638 182.328 525.24C179.148 527.785 177.1 530.569 173.081 531.462C170.519 532.031 167.205 532.672 164.862 533.973C162.995 535.011 160.015 533.55 158.412 534.715C156.374 536.197 152.999 536.161 150.535 537.569C148.914 538.496 147.825 539.515 145.855 539.624C144.339 539.709 137.494 543.642 136.094 544.761C132.844 547.362 128.901 547.203 126.334 550.412C124.849 552.269 119.141 555.264 117.087 556.291C114.841 557.414 111.696 564.083 110.694 566.337C109 570.149 105.785 572.747 105.785 577.125C105.785 582.589 101.335 587.078 98.5365 591.509C95.9874 595.545 90.3352 598.482 88.091 602.297C86.7315 604.608 84.8895 606.339 84.1526 608.918C83.8416 610.007 82.4293 609.109 82.2119 610.63C81.9205 612.67 81.9408 614.806 80.8991 616.681C79.9109 618.459 78.1848 619.305 78.0452 621.818C77.8557 625.227 76.2664 625.449 74.9629 628.382C72.9517 632.907 69.4821 635.632 66.2869 638.827C61.5268 643.587 58.7667 653.789 50.3048 649.558M49 652.313C49 647.486 50.2777 644.092 51.169 639.413C52.088 634.588 56.2692 630.76 57.2764 626.228C58.0056 622.947 61.2519 619.77 63.1556 617.152C65.3312 614.161 67.176 607.023 70.5758 604.823C73.0232 603.24 75.3635 593.513 75.77 590.668C76.0852 588.461 76.9895 585.549 78.7952 584.275C80.2718 583.233 80.2838 579.008 81.3066 577.254C83.4583 573.566 85.554 568.428 87.0145 564.411C89.2528 558.256 94.6959 552.693 96.2613 546.432C96.7431 544.504 98.5895 541.903 99.8573 540.381C101.84 538.002 102.436 534.72 104.481 532.561C107.739 529.122 110.152 524.144 112.7 520.004C115.489 515.472 118.785 511.487 120.691 506.191C123.009 499.753 127.736 492.98 128.91 486.328C130.071 479.749 132.737 473.46 135.36 467.777C136.958 464.316 137.942 461.073 139.641 457.674C140.543 455.871 141.032 453.749 142.039 452.023C142.921 450.511 144.739 450.064 145.52 448.37C148.864 441.125 154.92 435.046 158.934 427.879C160.871 424.419 162.936 417.842 166.126 415.778C167.151 415.115 169.966 411.468 170.178 410.299C171.025 405.641 175.234 399.914 178.227 396.257C178.767 395.596 178.4 394.184 178.512 393.403C178.768 391.609 180.252 391.636 180.966 390.207C182.224 387.692 182.698 385.313 184.163 382.901C189.695 373.789 190.285 361.699 193.866 351.85C195.139 348.349 196.578 342.653 196.948 338.95C197.182 336.612 198.395 335.095 199.574 333.242C202.516 328.618 202.251 324.227 203.57 319.201C205.323 312.517 208.25 304.745 208.25 297.853C208.25 293.917 210.028 291.401 210.305 287.807C210.738 282.175 211.761 276.371 212.303 270.684C212.857 264.863 213.923 257.887 215.442 252.19C218.839 239.451 225.14 227.844 227.771 214.689C228.754 209.776 231.624 204.095 231.881 199.221C232.181 193.511 235.834 188.86 235.99 183.239C236.124 178.412 237.927 174.829 239.872 170.453C241.09 167.711 244.21 163.167 244.21 160.179M190.784 358.471C191.097 355.651 194.215 353.331 195.407 350.708C196.478 348.352 198.717 342.874 201.286 341.804C203.176 341.017 206.125 336.305 207.223 334.384C207.964 333.087 212.123 330.155 213.901 329.76C218.219 328.801 226.313 320.56 228.855 316.746C230.315 314.557 231.336 310.819 232.908 309.155C234.905 307.04 237.018 303.947 237.018 300.935M206.195 317.374C206.195 312.117 208.671 304.744 210.761 299.965C212.454 296.098 215.211 288.646 215.442 284.497C215.665 280.483 218.615 278.785 219.495 275.707C220.602 271.831 222.179 267.6 225.259 264.519C227.407 262.371 230.565 260.409 232.109 257.784C233.236 255.868 235.6 254.367 237.075 252.647C238.583 250.887 240.092 247.802 241.698 246.425C249.857 239.432 258.448 229.521 264.301 220.568C270.994 210.333 276.873 198.936 285.078 189.746C288.571 185.834 290.959 180.383 294.04 175.59C298.136 169.218 301.352 162.741 305.227 156.184C306.245 154.46 306.4 150.144 307.91 149.106C309.311 148.142 309.965 147.58 309.965 145.795C309.965 142.141 312.353 138.385 313.104 135.007C313.741 132.142 313.145 127.281 314.302 124.676C315.449 122.097 317.156 118.877 317.156 116M116.81 515.563V439.409C116.81 439.409 118.515 429.527 118.865 424.454C119.452 415.938 120.976 398.597 120.976 398.597C120.976 398.597 121.947 370.042 121.947 355.731C121.947 345.117 121.718 321.484 121.718 321.484C121.718 321.484 121.045 313.104 120.919 308.698C120.78 303.828 117.894 294.257 117.894 294.257C117.894 294.257 117.883 279.318 114.983 273.195C112.351 267.639 112.7 256.756 112.7 256.756" stroke="#30EC82" stroke-opacity="0.4" stroke-width="6" stroke-linecap="round"/>
<path d="M55.0839 266.337C60.3367 268.998 78.7355 272.304 110.308 264.235L125.084 244.806L142.414 216.379L151.175 194.695L153.115 180.24L143.243 168.906L118.601 190.856L92.8585 160.794L79.7334 164.831L83.3389 176.553L72.1583 179.992L73.3918 204.762L55.2562 195.969L23.5467 194.944L23.5357 213.938L11.6551 223.751L48.5939 245.237L55.0839 266.337Z" fill="#FF00DD" stroke="#770040" stroke-opacity="0.3" stroke-width="5"/>
<path d="M219.334 269.066C219.161 272.49 221.756 283.059 233.519 297.945L247.351 301.208L266.573 303.701L280.181 303.23L288.329 300.842L292.022 292.908L274.515 284.994L284.416 264.187L279.162 258.16L273.78 262.852L269.305 257.718L256.421 264.235L256.807 252.507L249.849 235.397L239.743 239.885L231.711 235.887L229.022 260.621L219.334 269.066Z" fill="#FF00DD" stroke="#770040" stroke-opacity="0.3" stroke-width="5"/>
<path d="M175.655 479.316C175.305 482.726 177.347 493.417 188.32 508.894L201.963 512.871L221.03 516.36L234.644 516.597L242.905 514.636L247.006 506.905L229.934 498.091L240.903 477.827L235.97 471.535L230.351 475.941L226.149 470.581L212.943 476.42L213.938 464.728L207.879 447.279L197.554 451.236L189.741 446.826L185.77 471.386L175.655 479.316Z" fill="#FF00DD" stroke="#770040" stroke-opacity="0.3" stroke-width="5"/>
<path d="M297.472 83.6079C298.613 88.6966 305.853 102.893 325.691 118.969L343.42 117.055L367.255 111.409L383.251 104.145L392 96.7167L393.274 83.3351L369.346 80.2255L372.94 45.0257L364.325 38.7544L359.769 48.2137L352.43 42.8715L339.671 58.6244L335.521 41.2942L320.522 19.6444L310.269 31.0892L299.148 29.1261L305.673 66.5812L297.472 83.6079Z" fill="#FF00C8" stroke="#C918D2" stroke-opacity="0.66" stroke-width="5"/>
<path d="M199.756 173.449C201.922 176.919 211.337 185.008 231.664 189.603L245.93 181.175L264.374 167.478L275.919 155.611L281.406 146.46L279.258 135.658L258.64 142.65L253.191 114.141L244.534 112.692L243.016 121.762L235.641 120.528L228.819 137.66L221.22 125.946L203.576 115.162L197.803 127.995L188.096 130.846L202.488 157.123L199.756 173.449Z" fill="#FF00D4"/>
<path d="M59.0505 257.229C63.4966 261.226 80.1672 268.907 111.282 267.652L128.7 250.622L150.156 224.725L162.338 203.95L166.797 189.21L159.597 175.045L132.456 192.467L113.773 154.999L100.714 156.238L101.96 169.376L90.8357 170.432L87.4742 196.734L72.0519 183.349L42.4684 175.019L38.9923 194.969L26.0477 202.56L56.8074 233.579L59.0505 257.229Z" fill="#FD7EFF" fill-opacity="0.74"/>
<path d="M225.117 269.021C224.043 272.332 223.902 283.017 231.932 299.272L245.112 304.508L263.965 309.794L277.899 311.358L286.795 310.242L292.626 303.06L276.937 292.745L292.447 273.941L288.698 267.287L282.004 271.059L278.81 265.391L264.023 269.827L267.494 258.456L264.925 240.748L253.49 243.619L246.389 238.529L237.167 262.232L225.117 269.021Z" fill="#FD7EFF" fill-opacity="0.74"/>
<path d="M185.258 472.26C183.304 475.14 180.193 485.364 183.378 503.211L194.578 511.911L211.213 522.239L224.16 527.622L233.015 529.027L240.616 523.754L228.42 509.477L248.553 495.737L246.806 488.302L239.326 490.06L237.837 483.727L222.4 483.869L228.901 473.914L231.365 456.192L219.583 455.765L214.181 448.899L198.722 469.095L185.258 472.26Z" fill="#FD7EFF" fill-opacity="0.74"/>
<path d="M304.332 80.7472C304.356 86.1061 308.388 101.794 324.325 121.675L342.055 122.96L366.55 121.576L383.733 117.13L393.872 111.2L397.982 97.8836L375.272 90.3864L386.323 55.4038L379.25 47.489L372.773 56.2374L366.748 49.4951L350.909 63.1242L350.567 44.8249L340.551 20.1809L328.084 29.9039L317.64 25.8952L315.99 65.0001L304.332 80.7472Z" fill="#FF7EE5" fill-opacity="0.74"/>
<path d="M199.727 180.517C202.891 183.093 214.799 187.991 237.124 186.978L249.724 175.775L265.276 158.771L274.145 145.161L277.435 135.531L272.361 126.35L252.784 137.87L239.62 113.582L230.246 114.471L231.057 123.021L223.072 123.778L220.495 140.932L209.518 132.311L188.352 127.072L185.733 140.089L176.401 145.115L198.267 165.127L199.727 180.517Z" fill="#FD90FF" fill-opacity="0.67"/>
</svg>
